# xmcd
#
# Track frame offsets:
#	150
#	14660
#	23106
#	43299
#	56024
#	74319
#	88999
#	104115
#	118773
#	132782
#	150163
#	168075
#	185080
#	201932
#	215156
#
# Disc length: 3119 seconds
#
# Revision: 1
# Processed by: cddbd v1.4PL0 Copyright (c) Steve Scherf et al.
# Submitted via: audiograbber 1.82.02
#
DISCID=e10c2d0f
DTITLE=Heidi Hauge - Beste Norske
DYEAR=2003
DGENRE=Country
TTITLE0=Livets Landevei
TTITLE1=Teneesee Waltz
TTITLE2=Skadei "Der Elvene Møtes"
TTITLE3=Skilsmisse
TTITLE4=Din Samvittighet
TTITLE5=Mot Ingenting
TTITLE6=Luftslått I Det Blå
TTITLE7=Tenk På Hva Det Gjorde Mot Meg
TTITLE8=Kjærlighet Og Sympati
TTITLE9=Min Barndoms Grønne Dal
TTITLE10=Kom Ta Min Hånd
TTITLE11=Når Du Har Reist Fra Meg
TTITLE12=Uten Deg
TTITLE13=En Drøm Om Nashville
TTITLE14=Siste Dans
EXTD=
EXTT0=
EXTT1=
EXTT2=
EXTT3=
EXTT4=
EXTT5=
EXTT6=
EXTT7=
EXTT8=
EXTT9=
EXTT10=
EXTT11=
EXTT12=
EXTT13=
EXTT14=
PLAYORDER=
